<svg width="26" height="26" viewBox="0 0 26 26" fill="none" xmlns="http://www.w3.org/2000/svg">
<rect opacity="0.402427" width="26" height="26" rx="10" fill="black"/>
<path d="M18.1234 7.18227C18.3187 6.98708 18.6352 6.98694 18.8304 7.18227L18.9584 7.31118C19.1535 7.50647 19.1536 7.82301 18.9584 8.01821L13.9027 13.0729L18.9584 18.1286C19.1536 18.3238 19.1535 18.6403 18.9584 18.8356L18.8304 18.9645C18.6353 19.1597 18.3187 19.1596 18.1234 18.9645L13.0668 13.9079L8.01111 18.9645C7.81577 19.1596 7.49923 19.1598 7.30408 18.9645L7.17615 18.8356C6.98105 18.6403 6.98095 18.3238 7.17615 18.1286L12.2308 13.0729L7.17615 8.01821C6.98097 7.82304 6.98112 7.50648 7.17615 7.31118L7.30408 7.18227C7.49925 6.98694 7.81578 6.98715 8.01111 7.18227L13.0668 12.2379L18.1234 7.18227Z" fill="white"/>
</svg>
